<svg width="30" height="21" viewBox="0 0 30 21" fill="none" xmlns="http://www.w3.org/2000/svg">
<path d="M29.6331 5.245H25.5078C25.4596 5.24491 25.4119 5.25432 25.3674 5.27269C25.3229 5.29105 25.2825 5.31802 25.2484 5.35204C25.2143 5.38605 25.1873 5.42646 25.1688 5.47094C25.1504 5.51542 25.1409 5.5631 25.1409 5.61125V20.2483C25.1409 20.2964 25.1504 20.3441 25.1688 20.3886C25.1873 20.4331 25.2143 20.4735 25.2484 20.5075C25.2825 20.5415 25.3229 20.5685 25.3674 20.5868C25.4119 20.6052 25.4596 20.6146 25.5078 20.6145H29.6331C29.6812 20.6146 29.7289 20.6052 29.7734 20.5868C29.8179 20.5685 29.8584 20.5415 29.8925 20.5075C29.9265 20.4735 29.9536 20.4331 29.972 20.3886C29.9905 20.3441 30 20.2964 30 20.2483V5.61256C30.0001 5.5643 29.9908 5.51648 29.9724 5.47185C29.954 5.42722 29.927 5.38666 29.8929 5.3525C29.8588 5.31834 29.8183 5.29126 29.7737 5.27281C29.7291 5.25436 29.6813 5.24491 29.6331 5.245ZM29.2668 19.882H25.874V5.97947H29.2668V19.882Z" fill="white"/>
<path d="M21.6194 20.2464V12.9298C21.6195 12.8817 21.6101 12.834 21.5917 12.7895C21.5734 12.745 21.5464 12.7045 21.5124 12.6704C21.4784 12.6364 21.438 12.6093 21.3935 12.5909C21.349 12.5724 21.3013 12.5629 21.2532 12.5629H17.1272C17.0791 12.5629 17.0314 12.5724 16.9869 12.5909C16.9425 12.6093 16.902 12.6364 16.868 12.6704C16.834 12.7045 16.807 12.745 16.7887 12.7895C16.7703 12.834 16.7609 12.8817 16.761 12.9298V20.2464C16.761 20.3435 16.7996 20.4367 16.8683 20.5054C16.9369 20.574 17.0301 20.6126 17.1272 20.6126H21.2532C21.3503 20.6126 21.4435 20.574 21.5122 20.5054C21.5808 20.4367 21.6194 20.3435 21.6194 20.2464ZM20.8863 19.8821H17.4942V13.2961H20.8869L20.8863 19.8821Z" fill="white"/>
<path d="M8.74675 9.5036C8.64961 9.5036 8.55645 9.54219 8.48777 9.61087C8.41908 9.67956 8.38049 9.77272 8.38049 9.86985V20.2464C8.38049 20.3435 8.41908 20.4367 8.48777 20.5054C8.55645 20.5741 8.64961 20.6126 8.74675 20.6126H12.8727C12.9698 20.6126 13.063 20.5741 13.1317 20.5054C13.2003 20.4367 13.2389 20.3435 13.2389 20.2464V9.86985C13.2389 9.77272 13.2003 9.67956 13.1317 9.61087C13.063 9.54219 12.9698 9.5036 12.8727 9.5036H8.74675ZM12.5058 19.8821H9.11366V10.2368H12.5058V19.8821Z" fill="white"/>
<path d="M0.36691 20.6126H4.49219C4.54034 20.6127 4.58804 20.6033 4.63255 20.5849C4.67706 20.5665 4.71751 20.5396 4.75159 20.5056C4.78567 20.4715 4.81271 20.4311 4.83116 20.3867C4.8496 20.3422 4.8591 20.2945 4.8591 20.2463V16.4755C4.8591 16.4274 4.8496 16.3797 4.83116 16.3352C4.81271 16.2907 4.78567 16.2503 4.75159 16.2163C4.71751 16.1823 4.67706 16.1553 4.63255 16.1369C4.58804 16.1186 4.54034 16.1092 4.49219 16.1093H0.36691C0.318758 16.1092 0.271061 16.1186 0.226549 16.1369C0.182038 16.1553 0.141585 16.1823 0.107505 16.2163C0.0734259 16.2503 0.0463891 16.2907 0.0279421 16.3352C0.00949507 16.3797 -7.73245e-08 16.4274 0 16.4755V20.2463C-7.73245e-08 20.2945 0.00949507 20.3422 0.0279421 20.3867C0.0463891 20.4311 0.0734259 20.4715 0.107505 20.5056C0.141585 20.5396 0.182038 20.5665 0.226549 20.5849C0.271061 20.6033 0.318758 20.6127 0.36691 20.6126ZM0.733164 16.8418H4.12594V19.8821H0.733164V16.8418Z" fill="white"/>
<path d="M2.42918 11.321C2.11055 11.3208 1.79901 11.415 1.53395 11.5919C1.2689 11.7687 1.06224 12.0202 0.940126 12.3145C0.818013 12.6088 0.785927 12.9327 0.847929 13.2452C0.909931 13.5577 1.06323 13.8449 1.28845 14.0703C1.51366 14.2957 1.80066 14.4492 2.11315 14.5115C2.42563 14.5737 2.74957 14.5419 3.04396 14.42C3.33836 14.2981 3.59 14.0917 3.76705 13.8268C3.9441 13.5619 4.0386 13.2504 4.0386 12.9318C4.03825 12.5049 3.86862 12.0956 3.56691 11.7937C3.2652 11.4917 2.85604 11.3217 2.42918 11.321ZM2.42918 13.8093C2.25546 13.8093 2.08564 13.7578 1.9412 13.6613C1.79676 13.5648 1.6842 13.4276 1.61775 13.267C1.5513 13.1065 1.53394 12.9299 1.56788 12.7595C1.60182 12.5892 1.68553 12.4327 1.80842 12.3099C1.9313 12.1871 2.08785 12.1035 2.25825 12.0697C2.42865 12.0359 2.60525 12.0534 2.76572 12.1199C2.92618 12.1865 3.06329 12.2992 3.15972 12.4437C3.25614 12.5882 3.30753 12.758 3.3074 12.9318C3.30706 13.1645 3.2144 13.3876 3.04975 13.5522C2.88511 13.7167 2.66193 13.8092 2.42918 13.8093Z" fill="white"/>
<path d="M19.1903 10.9968C19.4692 10.9969 19.7433 10.9246 19.9859 10.787C20.2284 10.6494 20.4311 10.4511 20.574 10.2116C20.7169 9.97217 20.7952 9.6997 20.8013 9.42088C20.8073 9.14207 20.7408 8.86647 20.6084 8.62105C20.4759 8.37564 20.282 8.16882 20.0456 8.02084C19.8092 7.87286 19.5385 7.78878 19.2599 7.77685C18.9812 7.76491 18.7043 7.82552 18.4561 7.95274C18.2079 8.07996 17.9971 8.26944 17.8441 8.50263L13.2495 6.82429C13.2043 6.80779 13.1563 6.80034 13.1082 6.8024C13.0601 6.80445 13.0129 6.81595 12.9693 6.83625C12.9256 6.85654 12.8864 6.88523 12.8539 6.92069C12.8213 6.95614 12.7961 6.99765 12.7796 7.04286C12.763 7.08807 12.7556 7.13609 12.7577 7.18417C12.7597 7.23226 12.7712 7.27947 12.7915 7.32311C12.8118 7.36675 12.8405 7.40596 12.8759 7.43852C12.9114 7.47107 12.9529 7.49632 12.9981 7.51282L17.5927 9.19116C17.5849 9.25541 17.5807 9.32006 17.5802 9.38479C17.5804 9.81193 17.75 10.2216 18.0519 10.5238C18.3537 10.826 18.7632 10.9961 19.1903 10.9968ZM19.1903 8.50788C19.364 8.50788 19.5338 8.55938 19.6782 8.65588C19.8226 8.75239 19.9352 8.88954 20.0017 9.05002C20.0681 9.21049 20.0855 9.38707 20.0517 9.55743C20.0178 9.72779 19.9341 9.88427 19.8113 10.0071C19.6885 10.1299 19.532 10.2136 19.3616 10.2474C19.1913 10.2813 19.0147 10.2639 18.8542 10.1975C18.6938 10.131 18.5566 10.0184 18.4601 9.87401C18.3636 9.72959 18.3121 9.5598 18.3121 9.3861C18.3123 9.15323 18.4048 8.92996 18.5695 8.7653C18.7342 8.60063 18.9574 8.50805 19.1903 8.50788Z" fill="white"/>
<path d="M27.387 3.22146C27.7396 3.22158 28.0825 3.10599 28.3631 2.89244C28.6436 2.67888 28.8464 2.37916 28.9402 2.03926C29.034 1.69936 29.0137 1.33807 28.8824 1.01083C28.751 0.683595 28.516 0.40849 28.2132 0.227736C27.9105 0.0469828 27.5568 -0.0294319 27.2064 0.0102181C26.856 0.0498682 26.5283 0.203392 26.2736 0.447231C26.0189 0.69107 25.8513 1.01175 25.7964 1.36006C25.7415 1.70837 25.8025 2.06506 25.9699 2.3754L21.097 7.23253C21.0619 7.26626 21.0339 7.30664 21.0146 7.35131C20.9953 7.39598 20.9851 7.44405 20.9846 7.49271C20.9841 7.54136 20.9933 7.58963 21.0117 7.63469C21.03 7.67975 21.0572 7.7207 21.0916 7.75515C21.1259 7.7896 21.1668 7.81686 21.2118 7.83533C21.2568 7.85381 21.3051 7.86312 21.3537 7.86274C21.4024 7.86236 21.4505 7.85229 21.4952 7.83312C21.5399 7.81394 21.5804 7.78605 21.6142 7.75106L26.4582 2.92084C26.7289 3.11538 27.0536 3.22048 27.387 3.22146ZM27.387 0.733165C27.5607 0.733036 27.7306 0.784449 27.8751 0.880899C28.0196 0.97735 28.1323 1.1145 28.1989 1.275C28.2654 1.4355 28.2829 1.61214 28.249 1.78256C28.2151 1.95298 28.1315 2.10952 28.0086 2.23238C27.8858 2.35524 27.7292 2.4389 27.5588 2.47277C27.3884 2.50663 27.2117 2.48918 27.0512 2.42263C26.8907 2.35608 26.7536 2.24341 26.6571 2.09889C26.5607 1.95437 26.5093 1.78448 26.5094 1.61073C26.5097 1.37809 26.6023 1.15508 26.7668 0.990582C26.9313 0.826082 27.1543 0.733513 27.387 0.733165Z" fill="white"/>
<path d="M4.63598 11.5593C4.72282 11.5592 4.80679 11.5283 4.87293 11.472L9.44585 7.58829C9.75749 7.83564 10.1492 7.9597 10.5464 7.93684C10.9437 7.91398 11.3186 7.7458 11.5998 7.46434C11.881 7.18287 12.0488 6.8078 12.0713 6.41057C12.0938 6.01334 11.9694 5.62171 11.7218 5.3103C11.4741 4.99889 11.1206 4.78946 10.7285 4.7219C10.3364 4.65434 9.93317 4.73339 9.5956 4.94397C9.25803 5.15455 9.00972 5.48196 8.89798 5.86381C8.78624 6.24567 8.81888 6.65528 8.98968 7.01463L4.39838 10.9135C4.34102 10.962 4.29998 11.027 4.2808 11.0996C4.26163 11.1722 4.26526 11.249 4.2912 11.3195C4.31714 11.39 4.36413 11.4509 4.42581 11.4938C4.48748 11.5366 4.56086 11.5595 4.63598 11.5593ZM10.4435 5.44853C10.6173 5.44853 10.7871 5.50005 10.9315 5.59658C11.076 5.69311 11.1885 5.83031 11.255 5.99082C11.3214 6.15133 11.3388 6.32795 11.3048 6.49833C11.2709 6.6687 11.1872 6.82518 11.0643 6.94798C10.9414 7.07077 10.7849 7.15437 10.6145 7.18818C10.4441 7.22199 10.2675 7.2045 10.107 7.13793C9.94654 7.07136 9.80942 6.9587 9.713 6.81419C9.61658 6.66968 9.56518 6.49982 9.56531 6.3261C9.56566 6.09334 9.65832 5.87024 9.82296 5.70572C9.9876 5.5412 10.2108 5.4487 10.4435 5.44853Z" fill="white"/>
</svg>
