<svg width="233" height="64" viewBox="0 0 233 64" fill="none" xmlns="http://www.w3.org/2000/svg">
<path d="M52.3281 17.2066C49.8312 15.4347 47.1594 13.5441 44.5469 11.6691C44.4875 11.6253 44.4312 11.5816 44.3594 11.5378C44.0532 11.2864 43.7066 11.0888 43.3344 10.9535L43.3031 10.9378C36.3156 9.22534 29.2094 7.46908 22.3375 5.76908L3.6375 1.15346L3.14687 1.02221C2.58437 0.862834 1.93438 0.684709 1.24063 0.772209C1.0506 0.801319 0.869263 0.871721 0.709376 0.978459L0.534373 1.12533C0.31524 1.35003 0.147802 1.61985 0.0437498 1.91596L0 2.03471V2.70658L0.0312507 2.80971C3.96875 14.0128 8.0125 25.3785 11.9125 36.3753C14.9156 44.8441 18.0375 53.6128 21.0812 62.2253C21.2687 62.8097 21.8031 63.1941 22.4687 63.2503H22.6125C22.9033 63.2578 23.1908 63.1869 23.4448 63.045C23.6989 62.9032 23.91 62.6956 24.0562 62.4441L35.4937 45.5285C38.2781 41.4128 41.0656 37.2847 43.8531 33.1691L47.275 28.1003C49.15 25.3191 51.0875 22.4472 53.0094 19.6503L53.1094 19.5066V19.3285C53.1531 18.816 53.1656 17.7628 52.3281 17.2035V17.2066ZM38.9281 23.3722C36.2406 24.791 33.5 26.2566 30.7406 27.7066L35.5656 22.4628C37.5719 20.266 39.6656 17.9941 41.7156 15.7691L41.7594 15.7253C41.9312 15.491 42.15 15.2722 42.3812 15.0378C42.5375 14.8785 42.7125 14.716 42.8719 14.5253C43.9406 15.2753 45.0219 16.0347 46.0625 16.7816C46.8125 17.3222 47.5781 17.866 48.3594 18.4066C45.2047 20.0409 42.0609 21.6962 38.9281 23.3722ZM32.0281 22.6691C29.9625 24.9378 27.825 27.266 25.7031 29.566C21.585 24.4988 17.4548 19.4415 13.3125 14.3941L7.75312 7.61283L7.74063 7.59721C7.32188 7.11596 6.91562 6.58783 6.5125 6.09096C6.25312 5.75346 5.97812 5.43158 5.70312 5.09408C7.37812 5.53159 9.06875 5.94408 10.7281 6.33783C12.1875 6.69096 13.7031 7.05658 15.1906 7.43783L40.3312 13.6316C37.5437 16.6503 34.7406 19.7097 32.0281 22.6691ZM24.7625 51.2128C24.9219 49.6753 25.0969 48.0941 25.2406 46.541C25.3719 45.2941 25.5 44.0222 25.6312 42.8066C25.8312 40.8566 26.05 38.8378 26.225 36.8597L26.2656 36.5097C26.4094 35.2472 26.5531 33.9472 26.6406 32.641C26.8088 32.546 26.9831 32.4625 27.1625 32.391C27.3781 32.291 27.5937 32.2035 27.8094 32.0722C31.1469 30.2972 34.4813 28.5253 37.8312 26.7691C41.1688 25.0128 44.5906 23.1941 47.9844 21.3941C44.905 25.9167 41.8383 30.448 38.7844 34.9878C36.2 38.8066 33.5438 42.7472 30.9 46.6285C29.8625 48.1816 28.7781 49.7628 27.7531 51.2847C26.5969 52.9847 25.4125 54.7253 24.2594 56.4722C24.4031 54.7128 24.575 52.941 24.7625 51.2128ZM4.6375 8.55033C4.45 8.02221 4.24375 7.48158 4.07188 6.96908C7.97188 11.7441 11.8969 16.5472 15.725 21.2035C17.7031 23.6191 19.6812 26.0222 21.6594 28.4535C22.05 28.9066 22.4406 29.391 22.8156 29.8597C23.3062 30.4597 23.7969 31.091 24.3312 31.691C24.1562 33.1972 24.0125 34.7222 23.8531 36.1847C23.7531 37.2097 23.6531 38.2378 23.5375 39.2785V39.291C23.4937 39.9472 23.4062 40.6097 23.3344 41.2535L23.0031 44.1691L22.9875 44.2691C22.7281 47.2285 22.4094 50.216 22.1062 53.116C21.9781 54.316 21.8625 55.5472 21.7313 56.7785C21.6594 56.5597 21.575 56.3378 21.5 56.1316C21.2798 55.5347 21.0684 54.9346 20.8656 54.3316L19.3187 49.9816L4.63437 8.55033" fill="#1C49E9"/>
<path d="M77.4277 18.4062V44H74.0879V18.4062H77.4277ZM85.6543 18.4062V21.1836H65.8789V18.4062H85.6543ZM89.4512 18.4062H97.9238C99.8457 18.4062 101.469 18.6992 102.793 19.2852C104.129 19.8711 105.143 20.7383 105.834 21.8867C106.537 23.0234 106.889 24.4238 106.889 26.0879C106.889 27.2598 106.648 28.332 106.168 29.3047C105.699 30.2656 105.02 31.0859 104.129 31.7656C103.25 32.4336 102.195 32.9316 100.965 33.2598L100.016 33.6289H92.0527L92.0176 30.8691H98.0293C99.248 30.8691 100.262 30.6582 101.07 30.2363C101.879 29.8027 102.488 29.2227 102.898 28.4961C103.309 27.7695 103.514 26.9668 103.514 26.0879C103.514 25.1035 103.32 24.2422 102.934 23.5039C102.547 22.7656 101.938 22.1973 101.105 21.7988C100.285 21.3887 99.2246 21.1836 97.9238 21.1836H92.8438V44H89.4512V18.4062ZM104.41 44L98.1875 32.3984L101.721 32.3809L108.031 43.7891V44H104.41ZM115.273 18.4062V44H111.881V18.4062H115.273ZM131.234 20.6738L122.762 44H119.299L129.055 18.4062H131.287L131.234 20.6738ZM138.336 44L129.846 20.6738L129.793 18.4062H132.025L141.816 44H138.336ZM137.896 34.5254V37.3027H123.518V34.5254H137.896ZM164.932 18.4062V44H161.521L148.637 24.2598V44H145.244V18.4062H148.637L161.574 38.1992V18.4062H164.932Z" fill="white"/>
<path d="M180.4 18.4062V44H177.061V18.4062H180.4ZM188.627 18.4062V21.1836H168.852V18.4062H188.627ZM208.684 41.2402V44H195.131V41.2402H208.684ZM195.816 18.4062V44H192.424V18.4062H195.816ZM206.891 29.4102V32.1699H195.131V29.4102H206.891ZM208.508 18.4062V21.1836H195.131V18.4062H208.508ZM212.885 18.4062H221.357C223.279 18.4062 224.902 18.6992 226.227 19.2852C227.562 19.8711 228.576 20.7383 229.268 21.8867C229.971 23.0234 230.322 24.4238 230.322 26.0879C230.322 27.2598 230.082 28.332 229.602 29.3047C229.133 30.2656 228.453 31.0859 227.562 31.7656C226.684 32.4336 225.629 32.9316 224.398 33.2598L223.449 33.6289H215.486L215.451 30.8691H221.463C222.682 30.8691 223.695 30.6582 224.504 30.2363C225.312 29.8027 225.922 29.2227 226.332 28.4961C226.742 27.7695 226.947 26.9668 226.947 26.0879C226.947 25.1035 226.754 24.2422 226.367 23.5039C225.98 22.7656 225.371 22.1973 224.539 21.7988C223.719 21.3887 222.658 21.1836 221.357 21.1836H216.277V44H212.885V18.4062ZM227.844 44L221.621 32.3984L225.154 32.3809L231.465 43.7891V44H227.844Z" fill="#1C49E9"/>
</svg>
